<svg preserveAspectRatio="none" overflow="visible" style="display: block;" width="16.25" height="16.25" viewBox="0 0 16.25 16.25" fill="none" xmlns="http://www.w3.org/2000/svg">
<path id="Vector" d="M8.125 0C6.51803 0 4.94714 0.476523 3.611 1.36931C2.27485 2.2621 1.23344 3.53105 0.618482 5.0157C0.00352043 6.50035 -0.157382 8.13401 0.156123 9.71011C0.469628 11.2862 1.24346 12.7339 2.37976 13.8702C3.51606 15.0065 4.9638 15.7804 6.53989 16.0939C8.11599 16.4074 9.74966 16.2465 11.2343 15.6315C12.719 15.0166 13.9879 13.9752 14.8807 12.639C15.7735 11.3029 16.25 9.73197 16.25 8.125C16.2477 5.97081 15.391 3.90551 13.8677 2.38227C12.3445 0.85903 10.2792 0.00227486 8.125 0ZM8.125 15C6.76526 15 5.43605 14.5968 4.30546 13.8414C3.17487 13.0859 2.29368 12.0122 1.77333 10.7559C1.25298 9.49971 1.11683 8.11737 1.3821 6.78375C1.64738 5.45013 2.30216 4.22513 3.26364 3.26364C4.22513 2.30215 5.45014 1.64737 6.78376 1.3821C8.11738 1.11683 9.49971 1.25298 10.756 1.77333C12.0122 2.29368 13.0859 3.17487 13.8414 4.30545C14.5968 5.43604 15 6.76525 15 8.125C14.9979 9.94773 14.2729 11.6952 12.9841 12.9841C11.6952 14.2729 9.94773 14.9979 8.125 15ZM11.875 8.125C11.875 8.29076 11.8092 8.44973 11.6919 8.56694C11.5747 8.68415 11.4158 8.75 11.25 8.75H6.5086L7.94219 10.1828C8.00026 10.2409 8.04632 10.3098 8.07775 10.3857C8.10918 10.4616 8.12535 10.5429 8.12535 10.625C8.12535 10.7071 8.10918 10.7884 8.07775 10.8643C8.04632 10.9402 8.00026 11.0091 7.94219 11.0672C7.88412 11.1253 7.81518 11.1713 7.73931 11.2027C7.66344 11.2342 7.58213 11.2503 7.5 11.2503C7.41788 11.2503 7.33656 11.2342 7.26069 11.2027C7.18482 11.1713 7.11588 11.1253 7.05782 11.0672L4.55782 8.56719C4.49971 8.50914 4.45361 8.44021 4.42215 8.36434C4.3907 8.28846 4.37451 8.20713 4.37451 8.125C4.37451 8.04287 4.3907 7.96154 4.42215 7.88566C4.45361 7.80979 4.49971 7.74086 4.55782 7.68281L7.05782 5.18281C7.17509 5.06554 7.33415 4.99965 7.5 4.99965C7.66586 4.99965 7.82492 5.06554 7.94219 5.18281C8.05947 5.30009 8.12535 5.45915 8.12535 5.625C8.12535 5.79085 8.05947 5.94991 7.94219 6.06719L6.5086 7.5H11.25C11.4158 7.5 11.5747 7.56585 11.6919 7.68306C11.8092 7.80027 11.875 7.95924 11.875 8.125Z" fill="#FAFAFA"/>
</svg>
