<svg preserveAspectRatio="none" overflow="visible" style="display: block;" width="27.5" height="27.5" viewBox="0 0 27.5 27.5" fill="none" xmlns="http://www.w3.org/2000/svg">
<path id="Vector" opacity="0.2" d="M26.125 0H1.375C1.01033 0 0.660591 0.144866 0.402728 0.402728C0.144866 0.660591 0 1.01033 0 1.375V26.125C0 26.4897 0.144866 26.8394 0.402728 27.0973C0.660591 27.3551 1.01033 27.5 1.375 27.5H26.125C26.4897 27.5 26.8394 27.3551 27.0973 27.0973C27.3551 26.8394 27.5 26.4897 27.5 26.125V1.375C27.5 1.01033 27.3551 0.660591 27.0973 0.402728C26.8394 0.144866 26.4897 0 26.125 0ZM17.875 17.875H9.625V9.625H17.875V17.875Z" fill="#FF7D12"/>
</svg>
