<svg preserveAspectRatio="none" overflow="visible" style="display: block;" width="30.25" height="31.625" viewBox="0 0 30.25 31.625" fill="none" xmlns="http://www.w3.org/2000/svg">
<path id="Vector" opacity="0.2" d="M19.25 1.375V6.875C19.25 7.23967 19.1051 7.58941 18.8473 7.84727C18.5894 8.10513 18.2397 8.25 17.875 8.25H12.375C12.0103 8.25 11.6606 8.10513 11.4027 7.84727C11.1449 7.58941 11 7.23967 11 6.875V1.375C11 1.01033 11.1449 0.660591 11.4027 0.402728C11.6606 0.144866 12.0103 0 12.375 0H17.875C18.2397 0 18.5894 0.144866 18.8473 0.402728C19.1051 0.660591 19.25 1.01033 19.25 1.375ZM6.875 23.375H1.375C1.01033 23.375 0.660591 23.5199 0.402728 23.7777C0.144866 24.0356 0 24.3853 0 24.75V30.25C0 30.6147 0.144866 30.9644 0.402728 31.2223C0.660591 31.4801 1.01033 31.625 1.375 31.625H6.875C7.23967 31.625 7.58941 31.4801 7.84727 31.2223C8.10513 30.9644 8.25 30.6147 8.25 30.25V24.75C8.25 24.3853 8.10513 24.0356 7.84727 23.7777C7.58941 23.5199 7.23967 23.375 6.875 23.375ZM28.875 23.375H23.375C23.0103 23.375 22.6606 23.5199 22.4027 23.7777C22.1449 24.0356 22 24.3853 22 24.75V30.25C22 30.6147 22.1449 30.9644 22.4027 31.2223C22.6606 31.4801 23.0103 31.625 23.375 31.625H28.875C29.2397 31.625 29.5894 31.4801 29.8473 31.2223C30.1051 30.9644 30.25 30.6147 30.25 30.25V24.75C30.25 24.3853 30.1051 24.0356 29.8473 23.7777C29.5894 23.5199 29.2397 23.375 28.875 23.375Z" fill="#FF7D12"/>
</svg>
